<?xml version="1.0" encoding="UTF-8"?>
<svg version="1.1" xmlns="http://www.w3.org/2000/svg" width="96" height="96">
<path d="M0 0 C1.26811523 -0.01260864 2.53623047 -0.02521729 3.84277344 -0.03820801 C5.22331295 -0.03104817 6.60384739 -0.02284418 7.984375 -0.01367188 C9.40397406 -0.0163675 10.82357131 -0.02025051 12.24316406 -0.02526855 C15.21567394 -0.03116045 18.18770241 -0.02261142 21.16015625 -0.00390625 C24.96696287 0.01888413 28.77264149 0.00575925 32.57940674 -0.01819611 C35.51001456 -0.03266301 38.44035574 -0.02804423 41.37097168 -0.01768494 C42.77437474 -0.01502007 44.17780215 -0.01827905 45.58117676 -0.02760315 C47.54369635 -0.03778128 49.50630102 -0.01951228 51.46875 0 C52.58475586 0.00318237 53.70076172 0.00636475 54.85058594 0.00964355 C57.734375 0.51757812 57.734375 0.51757812 60.09362793 2.1583252 C62.21628961 5.21052982 62.24139082 7.07917501 62.25195312 10.78320312 C62.26456177 12.05131836 62.27717041 13.31943359 62.29016113 14.62597656 C62.2830013 16.00651608 62.27479731 17.38705051 62.265625 18.76757812 C62.26832062 20.18717718 62.27220363 21.60677444 62.27722168 23.02636719 C62.28311358 25.99887707 62.27456454 28.97090554 62.25585938 31.94335938 C62.233069 35.75016599 62.24619388 39.55584462 62.27014923 43.36260986 C62.28461614 46.29321769 62.27999735 49.22355887 62.26963806 52.1541748 C62.26697319 53.55757786 62.27023217 54.96100527 62.27955627 56.36437988 C62.28973441 58.32689947 62.2714654 60.28950414 62.25195312 62.25195312 C62.24877075 63.36795898 62.24558838 64.48396484 62.24230957 65.63378906 C61.734375 68.51757812 61.734375 68.51757812 60.09362793 70.87683105 C57.0414233 72.99949274 55.17277811 73.02459394 51.46875 73.03515625 C49.56657715 73.05406921 49.56657715 73.05406921 47.62597656 73.07336426 C46.24543705 73.06620442 44.86490261 73.05800043 43.484375 73.04882812 C42.06477594 73.05152375 40.64517869 73.05540676 39.22558594 73.0604248 C36.25307606 73.0663167 33.28104759 73.05776767 30.30859375 73.0390625 C26.50178713 73.01627212 22.69610851 73.029397 18.88934326 73.05335236 C15.95873544 73.06781926 13.02839426 73.06320048 10.09777832 73.05284119 C8.69437526 73.05017632 7.29094785 73.0534353 5.88757324 73.0627594 C3.92505365 73.07293753 1.96244898 73.05466853 0 73.03515625 C-1.11600586 73.03197388 -2.23201172 73.0287915 -3.38183594 73.0255127 C-6.265625 72.51757812 -6.265625 72.51757812 -8.62487793 70.87683105 C-10.74753961 67.82462643 -10.77264082 65.95598124 -10.78320312 62.25195312 C-10.79581177 60.98383789 -10.80842041 59.71572266 -10.82141113 58.40917969 C-10.8142513 57.02864017 -10.80604731 55.64810574 -10.796875 54.26757812 C-10.79957062 52.84797907 -10.80345363 51.42838181 -10.80847168 50.00878906 C-10.81436358 47.03627918 -10.80581454 44.06425071 -10.78710938 41.09179688 C-10.764319 37.28499026 -10.77744388 33.47931163 -10.80139923 29.67254639 C-10.81586614 26.74193856 -10.81124735 23.81159738 -10.80088806 20.88098145 C-10.79822319 19.47757839 -10.80148217 18.07415098 -10.81080627 16.67077637 C-10.82098441 14.70825678 -10.8027154 12.74565211 -10.78320312 10.78320312 C-10.78002075 9.66719727 -10.77683838 8.55119141 -10.77355957 7.40136719 C-10.265625 4.51757812 -10.265625 4.51757812 -8.62487793 2.1583252 C-5.5726733 0.03566351 -3.70402811 0.01056231 0 0 Z " fill="#25A599" transform="translate(22.265625,11.482421875)"/>
<path d="M0 0 C3.67889321 1.69375497 5.46149807 3.51403708 7.9375 6.75 C10.2366984 9.72391644 12.5345919 12.6623223 15 15.5 C17 18 17 18 17 20 C29.54 20 42.08 20 55 20 C55.66 18.68 56.32 17.36 57 16 C58.18621122 14.32294276 59.41981934 12.6788551 60.6875 11.0625 C61.33074219 10.22847656 61.97398438 9.39445312 62.63671875 8.53515625 C65.50229984 5.46116927 68.52121468 3.35144014 72 1 C72.09901748 5.62640153 72.17153649 10.25218387 72.21972656 14.87939453 C72.2398188 16.45274604 72.26709799 18.02602308 72.30175781 19.59912109 C72.35038494 21.86314272 72.37299135 24.12617573 72.390625 26.390625 C72.41127014 27.09181458 72.43191528 27.79300415 72.45318604 28.51544189 C72.45464409 31.70246458 72.29817306 33.6018911 70.36322021 36.18536377 C67.31063502 38.52933986 65.55967056 38.50667001 61.734375 38.51757812 C60.46625977 38.53018677 59.19814453 38.54279541 57.89160156 38.55578613 C56.51106205 38.5486263 55.13052761 38.54042231 53.75 38.53125 C52.33040094 38.53394562 50.91080369 38.53782863 49.49121094 38.54284668 C46.51870106 38.54873858 43.54667259 38.54018954 40.57421875 38.52148438 C36.76741213 38.498694 32.96173351 38.51181888 29.15496826 38.53577423 C26.22436044 38.55024114 23.29401926 38.54562235 20.36340332 38.53526306 C18.96000026 38.53259819 17.55657285 38.53585717 16.15319824 38.54518127 C14.19067865 38.55535941 12.22807398 38.5370904 10.265625 38.51757812 C9.14961914 38.51439575 8.03361328 38.51121338 6.88378906 38.50793457 C3.32802675 37.88164237 2.14091575 36.86597063 0 34 C-0.34939929 31.24913809 -0.46885179 28.9116444 -0.390625 26.171875 C-0.38496521 25.42286926 -0.37930542 24.67386353 -0.37347412 23.90216064 C-0.35114057 21.517448 -0.30095386 19.13425592 -0.25 16.75 C-0.22993091 15.13023009 -0.21168085 13.51043654 -0.1953125 11.890625 C-0.15128624 7.92650034 -0.08228298 3.96350768 0 0 Z " fill="#25A599" transform="translate(12,46)"/>
<path d="M0 0 C0.78375 0.7425 1.5675 1.485 2.375 2.25 C0.97350594 4.13405979 -0.4354297 6.00980861 -1.8671875 7.87109375 C-3.66077241 10.23063339 -3.66077241 10.23063339 -5.1953125 12.78515625 C-6.86041885 15.32303574 -8.28379529 17.30926451 -10.625 19.25 C-14.58493013 20.02593225 -17.5487276 19.70291916 -21.625 19.25 C-20.14 11.33 -20.14 11.33 -18.625 3.25 C-19.17285156 4.405 -19.72070312 5.56 -20.28515625 6.75 C-26.27575713 18.34912509 -26.27575713 18.34912509 -32.3125 20.6640625 C-37.88054727 20.96716185 -41.84655128 20.55452831 -46.41015625 17.20703125 C-48.75747955 14.67944606 -50.70245008 12.11098682 -52.625 9.25 C-53.17027344 8.51652344 -53.71554688 7.78304687 -54.27734375 7.02734375 C-55.43530222 5.46522249 -56.53830795 3.86251078 -57.625 2.25 C-41.92130346 -10.90952224 -16.63560889 -13.81734103 0 0 Z " fill="#EAEBEB" transform="translate(75.625,42.75)"/>
<path d="M0 0 C6.04500789 -0.12877836 11.39175719 0.15262557 17.1171875 2.12109375 C17.90738281 2.37761719 18.69757813 2.63414063 19.51171875 2.8984375 C25.72440312 5.12202499 31.62692656 8.17529909 36.1171875 13.12109375 C36.1171875 17.98630244 35.10138475 18.77961178 31.9921875 22.37109375 C28.68470297 26.04274141 28.68470297 26.04274141 26.13720703 30.22412109 C24.71446421 32.94037679 23.64034818 34.33558559 21.1171875 36.12109375 C15.66935217 37.23420211 10.41488086 37.35608443 4.86865234 37.27392578 C2.25229138 37.24620082 -0.34969652 37.31424516 -2.96484375 37.390625 C-15.03552834 37.50223779 -15.03552834 37.50223779 -19.70214844 34.01318359 C-21.73516528 31.47925793 -23.32372479 28.96567795 -24.8828125 26.12109375 C-25.6997404 25.0454969 -26.53892659 23.98582516 -27.4140625 22.95703125 C-29.23697917 20.67838542 -31.05989583 18.39973958 -32.8828125 16.12109375 C-30.37802493 9.91357673 -24.03919556 6.70402459 -18.28125 3.81640625 C-12.20474527 1.23906524 -6.54805319 0.27505372 0 0 Z M-26.0078125 13.93359375 C-26.6265625 14.65546875 -27.2453125 15.37734375 -27.8828125 16.12109375 C-27.37492187 16.68957031 -26.86703125 17.25804687 -26.34375 17.84375 C-25.65539062 18.61589844 -24.96703125 19.38804688 -24.2578125 20.18359375 C-23.51402344 20.99828125 -22.77023438 21.81296875 -22.00390625 22.65234375 C-19.8828125 25.12109375 -19.8828125 25.12109375 -18.54296875 27.27734375 C-16.289495 30.79074691 -14.58273209 31.91413266 -10.52734375 33.11328125 C-6.3479402 33.59116691 -2.73424091 33.93442801 1.1171875 32.12109375 C5.70510235 27.71072354 8.42299091 21.8010941 11.1171875 16.12109375 C10.1271875 21.40109375 9.1371875 26.68109375 8.1171875 32.12109375 C13.71549761 33.14510403 13.71549761 33.14510403 19.1171875 32.12109375 C23.64964466 28.28995391 26.89509114 23.05236005 30.1171875 18.12109375 C30.7771875 17.13109375 31.4371875 16.14109375 32.1171875 15.12109375 C16.46560352 2.00524125 -10.29671919 -1.68873632 -26.0078125 13.93359375 Z " fill="#047C6E" transform="translate(45.8828125,29.87890625)"/>
<path d="M0 0 C1.29418729 3.88256187 0.5145056 6.15078689 -0.375 10.125 C-0.65085937 11.38570312 -0.92671875 12.64640625 -1.2109375 13.9453125 C-2 17 -2 17 -3 18 C-4.99958364 18.04080783 -7.00045254 18.04254356 -9 18 C-8.09476787 13.7997229 -6.09717906 10.42033539 -3.9375 6.75 C-3.56044922 6.1003125 -3.18339844 5.450625 -2.79492188 4.78125 C-1.86765885 3.18494909 -0.93441544 1.59212471 0 0 Z " fill="#3A454A" transform="translate(57,44)"/>
<path d="M0 0 C3.63 0 7.26 0 11 0 C10.01 0.33 9.02 0.66 8 1 C8 3.31 8 5.62 8 8 C6.68 8 5.36 8 4 8 C4 5.69 4 3.38 4 1 C2.68 0.67 1.36 0.34 0 0 Z " fill="#9AB1B7" transform="translate(42,34)"/>
<path d="M0 0 C1.32 0.66 2.64 1.32 4 2 C2.02 4.97 2.02 4.97 0 8 C-1.32 7.67 -2.64 7.34 -4 7 C-1.125 1.125 -1.125 1.125 0 0 Z " fill="#95AAB2" transform="translate(69,39)"/>
<path d="M0 0 C0.33 2.64 0.66 5.28 1 8 C-0.875 7.875 -0.875 7.875 -3 7 C-4.25 3.9375 -4.25 3.9375 -5 1 C-2 0 -2 0 0 0 Z " fill="#93A9B1" transform="translate(38,35)"/>
<path d="M0 0 C1.89213369 2.38573379 3.02391783 4.07175348 4 7 C2.68 7.33 1.36 7.66 0 8 C-0.99 6.02 -1.98 4.04 -3 2 C-2.01 1.34 -1.02 0.68 0 0 Z " fill="#92A8B0" transform="translate(26,39)"/>
<path d="M0 0 C1.98 0.495 1.98 0.495 4 1 C3.67 3.31 3.34 5.62 3 8 C1.68 8 0.36 8 -1 8 C-0.67 5.36 -0.34 2.72 0 0 Z " fill="#92A7B0" transform="translate(57,35)"/>
</svg>
